<svg width="45" height="45" viewBox="0 0 45 45" fill="none" xmlns="http://www.w3.org/2000/svg">
<g clip-path="url(#clip0_155_126)">
<path d="M41.0298 35.2774C41.7226 34.356 42.1336 33.211 42.1336 31.9723C42.1336 28.9325 39.6606 26.4599 36.6212 26.4599C35.6657 26.4599 34.7662 26.7043 33.9821 27.1338V23.4668H35.7423V15.293H30.9591V14.78C30.9591 12.109 29.2865 9.82281 26.9347 8.90923C27.6402 7.9771 28.0601 6.81667 28.0601 5.56011C28.0601 2.49424 25.5659 0 22.5 0C19.4341 0 16.9399 2.49424 16.9399 5.56011C16.9399 6.81667 17.3594 7.9771 18.0653 8.90923C15.7135 9.82281 14.0409 12.109 14.0409 14.78V15.293H9.2577V23.4668H11.0179V27.1338C10.2338 26.7047 9.33426 26.4599 8.37879 26.4599C5.33936 26.4599 2.8664 28.9328 2.8664 31.9723C2.8664 33.2113 3.27736 34.356 3.97018 35.2774C1.64898 36.1876 0 38.4487 0 41.0885V45H45V41.0885C45 38.4487 43.351 36.1876 41.0298 35.2774ZM36.6212 29.0966C38.2067 29.0966 39.4969 30.3865 39.4969 31.9723C39.4969 33.5581 38.2067 34.8479 36.6212 34.8479C35.0354 34.8479 33.7452 33.5581 33.7452 31.9723C33.7452 30.3865 35.0354 29.0966 36.6212 29.0966ZM22.5 2.63672C24.1119 2.63672 25.4234 3.94821 25.4234 5.56011C25.4234 7.17201 24.1119 8.48351 22.5 8.48351C20.8881 8.48351 19.5766 7.17201 19.5766 5.56011C19.5766 3.94821 20.8881 2.63672 22.5 2.63672ZM16.6776 14.78C16.6776 12.762 18.3197 11.1202 20.3378 11.1202H24.6626C26.6806 11.1202 28.3224 12.762 28.3224 14.78V15.293H16.6779V14.78H16.6776ZM11.8944 17.9297H33.1056V20.8301H11.8944V17.9297ZM31.3454 23.4668V30.3751C31.1919 30.8809 31.1088 31.4171 31.1088 31.9723C31.1088 33.211 31.5198 34.356 32.2126 35.2774C31.1596 35.6901 30.2457 36.3809 29.5608 37.2591C28.8755 36.3809 27.9619 35.6901 26.909 35.2774C27.6014 34.356 28.0127 33.211 28.0127 31.9723C28.0127 28.9325 25.5398 26.4599 22.5 26.4599C19.4606 26.4599 16.9876 28.9325 16.9876 31.9723C16.9876 33.211 17.3986 34.356 18.0914 35.2774C17.0384 35.6901 16.1245 36.3809 15.4396 37.2591C14.7546 36.3809 13.8407 35.6901 12.7877 35.2774C13.4806 34.356 13.8915 33.211 13.8915 31.9723C13.8915 31.4168 13.8081 30.8809 13.6546 30.3751V23.4668H31.3454ZM19.6243 31.9723C19.6243 30.3865 20.9142 29.0966 22.5 29.0966C24.0858 29.0966 25.3757 30.3865 25.3757 31.9723C25.3757 33.5577 24.0858 34.8479 22.5 34.8479C20.9142 34.8479 19.6243 33.5577 19.6243 31.9723ZM8.37879 29.0966C9.9646 29.0966 11.2548 30.3865 11.2548 31.9723C11.2548 33.5581 9.9646 34.8479 8.37879 34.8479C6.79333 34.8479 5.50312 33.5581 5.50312 31.9723C5.50312 30.3865 6.79333 29.0966 8.37879 29.0966ZM14.1212 42.3633H2.63672V41.0885C2.63672 39.1014 4.25343 37.4847 6.24092 37.4847H10.517C12.5042 37.4847 14.1212 39.1014 14.1212 41.0885V42.3633ZM28.2421 42.3633H16.7579V41.0885C16.7579 39.1014 18.3746 37.4847 20.3618 37.4847H24.6382C26.6254 37.4847 28.2421 39.1014 28.2421 41.0885V42.3633ZM42.3633 42.3633H30.8788V41.0885C30.8788 39.1014 32.4958 37.4847 34.483 37.4847H38.7591C40.7466 37.4847 42.3633 39.1014 42.3633 41.0885V42.3633Z" fill="#777C8A"/>
</g>
<defs>
<clipPath id="clip0_155_126">
<rect width="45" height="45" fill="white"/>
</clipPath>
</defs>
</svg>
