<svg width="35" height="35" viewBox="0 0 35 35" fill="none" xmlns="http://www.w3.org/2000/svg">
<path d="M17.2673 3.45447C9.63835 3.45447 3.4541 9.63871 3.4541 17.2676C3.4541 24.9011 9.63835 31.0853 17.2673 31.0853C24.9007 31.0853 31.085 24.9011 31.085 17.2676C31.085 9.63871 24.9007 3.45447 17.2673 3.45447ZM18.8988 17.2676C18.8988 17.2676 22.5127 20.8861 22.6904 21.0593C23.137 21.5105 23.137 22.2396 22.6904 22.6908C22.2393 23.1374 21.5101 23.1374 21.0589 22.6908C20.8857 22.5131 17.2673 18.8991 17.2673 18.8991C17.2673 18.8991 13.6533 22.5131 13.4801 22.6908C13.029 23.1374 12.2998 23.1374 11.8486 22.6908C11.402 22.2396 11.402 21.5105 11.8486 21.0593C12.0264 20.8861 15.6403 17.2676 15.6403 17.2676C15.6403 17.2676 12.0264 13.6537 11.8486 13.4805C11.402 13.0293 11.402 12.3002 11.8486 11.849C12.2998 11.4024 13.029 11.4024 13.4801 11.849C13.6533 12.0267 17.2673 15.6407 17.2673 15.6407C17.2673 15.6407 20.8857 12.0267 21.0589 11.849C21.5101 11.4024 22.2393 11.4024 22.6904 11.849C23.137 12.3002 23.137 13.0293 22.6904 13.4805C22.5127 13.6537 18.8988 17.2676 18.8988 17.2676Z" fill="#A4A8B1"/>
</svg>
