<svg width="25" height="25" viewBox="0 0 25 25" fill="none" xmlns="http://www.w3.org/2000/svg">
<path d="M5.77106 21.3333C5.13565 21.3333 4.5419 21.1145 4.11481 20.7083C3.57315 20.1979 3.31273 19.427 3.40648 18.5937L3.7919 15.2187C3.86481 14.5833 4.25023 13.7395 4.69815 13.2812L13.2502 4.22912C15.3856 1.9687 17.6148 1.9062 19.8752 4.04162C22.1356 6.17703 22.1981 8.4062 20.0627 10.6666L11.5106 19.7187C11.0731 20.1874 10.2606 20.625 9.62523 20.7291L6.27106 21.302C6.09398 21.3124 5.93773 21.3333 5.77106 21.3333ZM16.594 4.0312C15.7919 4.0312 15.094 4.5312 14.3856 5.2812L5.83356 14.3437C5.62523 14.5624 5.38565 15.0833 5.34398 15.3854L4.95856 18.7604C4.9169 19.1041 5.00023 19.3854 5.18773 19.5624C5.37523 19.7395 5.65648 19.802 6.00023 19.7499L9.3544 19.177C9.65648 19.125 10.1565 18.8541 10.3648 18.6354L18.9169 9.58328C20.2086 8.20828 20.6773 6.93745 18.7919 5.16662C17.9586 4.36453 17.2398 4.0312 16.594 4.0312Z" fill="#2361FF"/>
<path d="M18.0621 12.4063C18.0413 12.4063 18.0101 12.4063 17.9892 12.4063C14.7392 12.0834 12.1246 9.61463 11.6246 6.38546C11.5621 5.95838 11.8538 5.56255 12.2809 5.48963C12.708 5.42713 13.1038 5.7188 13.1767 6.14588C13.5726 8.66671 15.6142 10.6042 18.1559 10.8542C18.583 10.8959 18.8955 11.2813 18.8538 11.7084C18.8017 12.1042 18.458 12.4063 18.0621 12.4063Z" fill="#2361FF"/>
</svg>
