<svg width="28" height="28" viewBox="0 0 28 28" fill="none" xmlns="http://www.w3.org/2000/svg">
<path fill-rule="evenodd" clip-rule="evenodd" d="M13.0596 7.05879C11.7887 7.21759 10.6238 7.71929 9.6601 8.46861L5.9269 4.73541C5.58714 4.39565 5.0355 4.39565 4.69553 4.73541C4.35577 5.07517 4.35577 5.62703 4.69553 5.96679L8.42872 9.69998C7.67962 10.6635 7.17792 11.8286 7.01911 13.0995H1.74111C1.26072 13.0995 0.870605 13.4896 0.870605 13.97C0.870605 14.4506 1.26072 14.8407 1.74111 14.8407H7.01911C7.17792 16.1116 7.67962 17.2765 8.42872 18.2402L4.69553 21.9734C4.35577 22.3131 4.35577 22.8648 4.69553 23.2048C5.0355 23.5445 5.58714 23.5445 5.9269 23.2048L9.6601 19.4716C10.6238 20.2207 11.7887 20.7224 13.0596 20.8812V26.1592C13.0596 26.6396 13.4497 27.0297 13.9303 27.0297C14.4107 27.0297 14.8008 26.6396 14.8008 26.1592V20.8812C16.0717 20.7224 17.2368 20.2207 18.2003 19.4716L21.9335 23.2048C22.2733 23.5445 22.8251 23.5445 23.1649 23.2048C23.5046 22.8648 23.5046 22.3131 23.1649 21.9734L19.4317 18.2402C20.181 17.2765 20.6827 16.1116 20.8415 14.8407H26.1193C26.5999 14.8407 26.99 14.4506 26.99 13.97C26.99 13.4896 26.5999 13.0995 26.1193 13.0995H20.8415C20.6827 11.8286 20.181 10.6635 19.4317 9.69998L23.1649 5.96679C23.5046 5.62703 23.5046 5.07517 23.1649 4.73541C22.8251 4.39565 22.2733 4.39565 21.9335 4.73541L18.2003 8.46861C17.2368 7.71929 16.0717 7.21759 14.8008 7.05879V1.78099C14.8008 1.3004 14.4107 0.910278 13.9303 0.910278C13.4497 0.910278 13.0596 1.3004 13.0596 1.78099V7.05879ZM8.70643 13.97C8.70643 11.0868 11.0471 8.7461 13.9303 8.7461C16.8135 8.7461 19.1542 11.0868 19.1542 13.97C19.1542 16.8531 16.8135 19.1939 13.9303 19.1939C11.0471 19.1939 8.70643 16.8531 8.70643 13.97ZM13.9303 10.4804C12.0042 10.4804 10.4405 12.044 10.4405 13.97C10.4405 15.8961 12.0042 17.4597 13.9303 17.4597C15.8562 17.4597 17.4199 15.8961 17.4199 13.97C17.4199 12.044 15.8562 10.4804 13.9303 10.4804ZM13.9303 12.2217C14.8953 12.2217 15.6786 13.005 15.6786 13.97C15.6786 14.9349 14.8953 15.7185 13.9303 15.7185C12.9654 15.7185 12.1818 14.9349 12.1818 13.97C12.1818 13.005 12.9654 12.2217 13.9303 12.2217Z" fill="#777C8A"/>
</svg>
