<svg width="25" height="25" viewBox="0 0 25 25" fill="none" xmlns="http://www.w3.org/2000/svg">
<path d="M15.6252 23.698H9.37516C3.71891 23.698 1.30225 21.2813 1.30225 15.625V9.37504C1.30225 3.71879 3.71891 1.30212 9.37516 1.30212H15.6252C21.2814 1.30212 23.6981 3.71879 23.6981 9.37504V15.625C23.6981 21.2813 21.2814 23.698 15.6252 23.698ZM9.37516 2.86462C4.57308 2.86462 2.86475 4.57296 2.86475 9.37504V15.625C2.86475 20.4271 4.57308 22.1355 9.37516 22.1355H15.6252C20.4272 22.1355 22.1356 20.4271 22.1356 15.625V9.37504C22.1356 4.57296 20.4272 2.86462 15.6252 2.86462H9.37516Z" fill="#777C8A"/>
<path d="M11.2083 17.0521C10.7708 17.0521 10.3646 16.9479 10 16.7396C9.16667 16.2604 8.6875 15.2812 8.6875 14.0416V10.9583C8.6875 9.72915 9.16667 8.73956 10 8.2604C10.8333 7.78123 11.9167 7.85415 12.9896 8.47915L15.6667 10.0208C16.7292 10.6354 17.3437 11.5416 17.3437 12.5C17.3437 13.4583 16.7292 14.3646 15.6667 14.9791L12.9896 16.5208C12.3854 16.875 11.7708 17.0521 11.2083 17.0521ZM11.2188 9.5104C11.0521 9.5104 10.9062 9.54165 10.7917 9.61456C10.4583 9.81248 10.2604 10.3021 10.2604 10.9583V14.0416C10.2604 14.6979 10.4479 15.1875 10.7917 15.3854C11.125 15.5833 11.6458 15.5 12.2187 15.1666L14.8958 13.625C15.4687 13.2916 15.7917 12.8854 15.7917 12.5C15.7917 12.1146 15.4687 11.6979 14.8958 11.375L12.2187 9.83331C11.8437 9.61456 11.5 9.5104 11.2188 9.5104Z" fill="#777C8A"/>
</svg>
