<svg width="25" height="25" viewBox="0 0 25 25" fill="none" xmlns="http://www.w3.org/2000/svg">
<path d="M12.5002 23C12.1877 23 11.8752 22.9271 11.6147 22.7813C9.66683 21.7188 6.23975 20.5938 4.09391 20.3125L3.79183 20.2709C2.42725 20.1042 1.30225 18.8229 1.30225 17.4375V4.85419C1.30225 4.03128 1.62516 3.28128 2.21891 2.73961C2.81266 2.19795 3.5835 1.93753 4.396 2.01045C6.68766 2.18753 10.146 3.33336 12.1043 4.56253L12.3543 4.70836C12.4272 4.75003 12.5835 4.75003 12.646 4.71878L12.8127 4.61461C14.771 3.38544 18.2293 2.21878 20.5314 2.02086C20.5522 2.02086 20.6356 2.02086 20.6564 2.02086C21.4168 1.94795 22.1981 2.21878 22.7814 2.76045C23.3752 3.30211 23.6981 4.05211 23.6981 4.87503V17.4479C23.6981 18.8438 22.5731 20.1146 21.1981 20.2813L20.8543 20.3229C18.7085 20.6042 15.271 21.7396 13.3647 22.7917C13.1147 22.9375 12.8127 23 12.5002 23ZM4.146 3.56253C3.81266 3.56253 3.51058 3.67711 3.271 3.89586C3.01058 4.13545 2.86475 4.47919 2.86475 4.85419V17.4375C2.86475 18.0521 3.396 18.6459 3.98975 18.7292L4.30225 18.7709C6.646 19.0834 10.2397 20.2604 12.3231 21.3959C12.4168 21.4375 12.5522 21.4479 12.6043 21.4271C14.6877 20.2709 18.3022 19.0834 20.6564 18.7709L21.0106 18.7292C21.6043 18.6563 22.1356 18.0521 22.1356 17.4375V4.86461C22.1356 4.47919 21.9897 4.14586 21.7293 3.89586C21.4585 3.65628 21.1147 3.5417 20.7293 3.56253C20.7085 3.56253 20.6252 3.56253 20.6043 3.56253C18.6147 3.73961 15.4064 4.81253 13.6564 5.90628L13.4897 6.02086C12.9168 6.37503 12.1043 6.37503 11.5522 6.03128L11.3022 5.88544C9.521 4.7917 6.31266 3.7292 4.271 3.56253C4.22933 3.56253 4.18766 3.56253 4.146 3.56253Z" fill="#777C8A"/>
<path d="M12.5 22.125C12.0729 22.125 11.7188 21.7708 11.7188 21.3438V5.71875C11.7188 5.29167 12.0729 4.9375 12.5 4.9375C12.9271 4.9375 13.2812 5.29167 13.2812 5.71875V21.3438C13.2812 21.7812 12.9271 22.125 12.5 22.125Z" fill="#777C8A"/>
<path d="M8.07275 9.625H5.729C5.30192 9.625 4.94775 9.27083 4.94775 8.84375C4.94775 8.41667 5.30192 8.0625 5.729 8.0625H8.07275C8.49984 8.0625 8.854 8.41667 8.854 8.84375C8.854 9.27083 8.49984 9.625 8.07275 9.625Z" fill="#777C8A"/>
<path d="M8.854 12.75H5.729C5.30192 12.75 4.94775 12.3958 4.94775 11.9687C4.94775 11.5417 5.30192 11.1875 5.729 11.1875H8.854C9.28109 11.1875 9.63525 11.5417 9.63525 11.9687C9.63525 12.3958 9.28109 12.75 8.854 12.75Z" fill="#777C8A"/>
</svg>
