<svg width="70" height="70" viewBox="0 0 70 70" fill="none" xmlns="http://www.w3.org/2000/svg">
<path d="M58.3333 52.4999H52.4999V58.3333H17.4999V11.6666H52.4999V17.4999H58.3333V8.74992C58.3333 7.97637 58.026 7.2345 57.479 6.68752C56.932 6.14054 56.1901 5.83325 55.4166 5.83325H14.5833C13.8097 5.83325 13.0678 6.14054 12.5209 6.68752C11.9739 7.2345 11.6666 7.97637 11.6666 8.74992V61.2499C11.6666 62.0235 11.9739 62.7653 12.5209 63.3123C13.0678 63.8593 13.8097 64.1666 14.5833 64.1666H55.4166C56.1901 64.1666 56.932 63.8593 57.479 63.3123C58.026 62.7653 58.3333 62.0235 58.3333 61.2499V52.4999ZM52.4999 32.0833H32.0833V37.9166H52.4999V46.6666L67.0833 34.9999L52.4999 23.3333V32.0833Z" fill="#777C8A"/>
</svg>
